<svg viewBox="0 0 39.1699 24" xmlns="http://www.w3.org/2000/svg" xmlns:xlink="http://www.w3.org/1999/xlink" width="39.169922" height="24.000000" fill="none" customFrame="#000000">
	<g id="Group 28">
		<path id="monetization_on" d="M9.63235 18.9945L11.4847 18.9945L11.4847 17.6714C12.3668 17.5126 13.1254 17.1686 13.7605 16.6393C14.3956 16.1101 14.7132 15.325 14.7132 14.2842C14.7132 13.5432 14.5015 12.864 14.0781 12.2466C13.6547 11.6291 12.8079 11.091 11.5377 10.6324C10.4792 10.2795 9.74702 9.97079 9.34126 9.70616C8.9355 9.44154 8.73263 9.07988 8.73263 8.6212C8.73263 8.16252 8.89581 7.80086 9.22218 7.53624C9.54855 7.27161 10.0205 7.1393 10.6379 7.1393C11.2025 7.1393 11.6435 7.27602 11.9611 7.54947C12.2786 7.82292 12.5079 8.16252 12.6491 8.56828L14.3427 7.88025C14.1486 7.26279 13.7914 6.72472 13.2709 6.26604C12.7505 5.80735 12.1728 5.55155 11.5377 5.49863L11.5377 4.1755L9.68528 4.1755L9.68528 5.49863C8.80319 5.69268 8.11517 6.0808 7.6212 6.66298C7.12723 7.24515 6.88025 7.89789 6.88025 8.6212C6.88025 9.45036 7.12282 10.1207 7.60797 10.6324C8.09311 11.144 8.85612 11.585 9.89698 11.9555C11.0084 12.3612 11.7802 12.7229 12.2124 13.0404C12.6447 13.358 12.8608 13.7726 12.8608 14.2842C12.8608 14.8664 12.6535 15.2942 12.2389 15.5676C11.8243 15.8411 11.326 15.9778 10.7438 15.9778C10.1616 15.9778 9.64558 15.7969 9.19572 15.4353C8.74586 15.0736 8.41508 14.5312 8.20338 13.8079L6.45685 14.4959C6.70383 15.3427 7.08754 16.0263 7.60797 16.5467C8.1284 17.0671 8.80319 17.4244 9.63235 17.6185L9.63235 18.9945ZM10.585 22.17C9.12074 22.17 7.74469 21.8921 6.45685 21.3364C5.16901 20.7807 4.04876 20.0265 3.09611 19.0739C2.14346 18.1212 1.38928 17.001 0.833569 15.7132C0.277856 14.4253 0 13.0493 0 11.585C0 10.1207 0.277856 8.74469 0.833569 7.45685C1.38928 6.16901 2.14346 5.04876 3.09611 4.09611C4.04876 3.14346 5.16901 2.38928 6.45685 1.83357C7.74469 1.27786 9.12074 1 10.585 1C12.0493 1 13.4253 1.27786 14.7132 1.83357C16.001 2.38928 17.1212 3.14346 18.0739 4.09611C19.0265 5.04876 19.7807 6.16901 20.3364 7.45685C20.8921 8.74469 21.17 10.1207 21.17 11.585C21.17 13.0493 20.8921 14.4253 20.3364 15.7132C19.7807 17.001 19.0265 18.1212 18.0739 19.0739C17.1212 20.0265 16.001 20.7807 14.7132 21.3364C13.4253 21.8921 12.0493 22.17 10.585 22.17Z" fill="rgb(255,255,255)" fill-rule="nonzero" />
		<path id="monetization_on" d="M9.63235 18.9945L11.4847 18.9945L11.4847 17.6714C12.3668 17.5126 13.1254 17.1686 13.7605 16.6393C14.3956 16.1101 14.7132 15.325 14.7132 14.2842C14.7132 13.5432 14.5015 12.864 14.0781 12.2466C13.6547 11.6291 12.8079 11.091 11.5377 10.6324C10.4792 10.2795 9.74702 9.97079 9.34126 9.70616C8.9355 9.44154 8.73263 9.07988 8.73263 8.6212C8.73263 8.16252 8.89581 7.80086 9.22218 7.53624C9.54855 7.27161 10.0205 7.1393 10.6379 7.1393C11.2025 7.1393 11.6435 7.27602 11.9611 7.54947C12.2786 7.82292 12.5079 8.16252 12.6491 8.56828L14.3427 7.88025C14.1486 7.26279 13.7914 6.72472 13.2709 6.26604C12.7505 5.80735 12.1728 5.55155 11.5377 5.49863L11.5377 4.1755L9.68528 4.1755L9.68528 5.49863C8.80319 5.69268 8.11517 6.0808 7.6212 6.66298C7.12723 7.24515 6.88025 7.89789 6.88025 8.6212C6.88025 9.45036 7.12282 10.1207 7.60797 10.6324C8.09311 11.144 8.85612 11.585 9.89698 11.9555C11.0084 12.3612 11.7802 12.7229 12.2124 13.0404C12.6447 13.358 12.8608 13.7726 12.8608 14.2842C12.8608 14.8664 12.6535 15.2942 12.2389 15.5676C11.8243 15.8411 11.326 15.9778 10.7438 15.9778C10.1616 15.9778 9.64558 15.7969 9.19572 15.4353C8.74586 15.0736 8.41508 14.5312 8.20338 13.8079L6.45685 14.4959C6.70383 15.3427 7.08754 16.0263 7.60797 16.5467C8.1284 17.0671 8.80319 17.4244 9.63235 17.6185L9.63235 18.9945ZM10.585 22.17C9.12074 22.17 7.74469 21.8921 6.45685 21.3364C5.16901 20.7807 4.04876 20.0265 3.09611 19.0739C2.14346 18.1212 1.38928 17.001 0.833569 15.7132C0.277856 14.4253 0 13.0493 0 11.585C0 10.1207 0.277856 8.74469 0.833569 7.45685C1.38928 6.16901 2.14346 5.04876 3.09611 4.09611C4.04876 3.14346 5.16901 2.38928 6.45685 1.83357C7.74469 1.27786 9.12074 1 10.585 1C12.0493 1 13.4253 1.27786 14.7132 1.83357C16.001 2.38928 17.1212 3.14346 18.0739 4.09611C19.0265 5.04876 19.7807 6.16901 20.3364 7.45685C20.8921 8.74469 21.17 10.1207 21.17 11.585C21.17 13.0493 20.8921 14.4253 20.3364 15.7132C19.7807 17.001 19.0265 18.1212 18.0739 19.0739C17.1212 20.0265 16.001 20.7807 14.7132 21.3364C13.4253 21.8921 12.0493 22.17 10.585 22.17Z" fill="rgb(0,0,0)" fill-opacity="0.200000003" fill-rule="nonzero" />
		<path id="monetization_on" d="M9.63235 18.9945L11.4847 18.9945L11.4847 17.6714C12.3668 17.5126 13.1254 17.1686 13.7605 16.6393C14.3956 16.1101 14.7132 15.325 14.7132 14.2842C14.7132 13.5432 14.5015 12.864 14.0781 12.2466C13.6547 11.6291 12.8079 11.091 11.5377 10.6324C10.4792 10.2795 9.74702 9.97079 9.34126 9.70616C8.9355 9.44154 8.73263 9.07988 8.73263 8.6212C8.73263 8.16252 8.89581 7.80086 9.22218 7.53624C9.54855 7.27161 10.0205 7.1393 10.6379 7.1393C11.2025 7.1393 11.6435 7.27602 11.9611 7.54947C12.2786 7.82292 12.5079 8.16252 12.6491 8.56828L14.3427 7.88025C14.1486 7.26279 13.7914 6.72472 13.2709 6.26604C12.7505 5.80735 12.1728 5.55155 11.5377 5.49863L11.5377 4.1755L9.68528 4.1755L9.68528 5.49863C8.80319 5.69268 8.11517 6.0808 7.6212 6.66298C7.12723 7.24515 6.88025 7.89789 6.88025 8.6212C6.88025 9.45036 7.12282 10.1207 7.60797 10.6324C8.09311 11.144 8.85612 11.585 9.89698 11.9555C11.0084 12.3612 11.7802 12.7229 12.2124 13.0404C12.6447 13.358 12.8608 13.7726 12.8608 14.2842C12.8608 14.8664 12.6535 15.2942 12.2389 15.5676C11.8243 15.8411 11.326 15.9778 10.7438 15.9778C10.1616 15.9778 9.64558 15.7969 9.19572 15.4353C8.74586 15.0736 8.41508 14.5312 8.20338 13.8079L6.45685 14.4959C6.70383 15.3427 7.08754 16.0263 7.60797 16.5467C8.1284 17.0671 8.80319 17.4244 9.63235 17.6185L9.63235 18.9945ZM10.585 22.17C9.12074 22.17 7.74469 21.8921 6.45685 21.3364C5.16901 20.7807 4.04876 20.0265 3.09611 19.0739C2.14346 18.1212 1.38928 17.001 0.833569 15.7132C0.277856 14.4253 0 13.0493 0 11.585C0 10.1207 0.277856 8.74469 0.833569 7.45685C1.38928 6.16901 2.14346 5.04876 3.09611 4.09611C4.04876 3.14346 5.16901 2.38928 6.45685 1.83357C7.74469 1.27786 9.12074 1 10.585 1C12.0493 1 13.4253 1.27786 14.7132 1.83357C16.001 2.38928 17.1212 3.14346 18.0739 4.09611C19.0265 5.04876 19.7807 6.16901 20.3364 7.45685C20.8921 8.74469 21.17 10.1207 21.17 11.585C21.17 13.0493 20.8921 14.4253 20.3364 15.7132C19.7807 17.001 19.0265 18.1212 18.0739 19.0739C17.1212 20.0265 16.001 20.7807 14.7132 21.3364C13.4253 21.8921 12.0493 22.17 10.585 22.17Z" fill="rgb(0,0,0)" fill-opacity="0.200000003" fill-rule="nonzero" />
		<path id="1" d="M36.3574 4.4541L36.3574 19L34.1602 19L34.1602 6.66113L34.0723 6.66113L30.5957 8.92676L30.5957 6.82227L34.2236 4.4541L36.3574 4.4541Z" fill="rgb(255,255,255)" fill-rule="nonzero" />
		<path id="1" d="M36.3574 4.4541L36.3574 19L34.1602 19L34.1602 6.66113L34.0723 6.66113L30.5957 8.92676L30.5957 6.82227L34.2236 4.4541L36.3574 4.4541Z" fill="rgb(0,0,0)" fill-opacity="0.200000003" fill-rule="nonzero" />
		<path id="1" d="M36.3574 4.4541L36.3574 19L34.1602 19L34.1602 6.66113L34.0723 6.66113L30.5957 8.92676L30.5957 6.82227L34.2236 4.4541L36.3574 4.4541Z" fill="rgb(0,0,0)" fill-opacity="0.200000003" fill-rule="nonzero" />
	</g>
</svg>
