<svg width="160" height="69" viewBox="0 0 160 69" fill="none" xmlns="http://www.w3.org/2000/svg">
<rect width="160" height="69.0019" rx="30" fill="#894189"/>
<path d="M0 30C0 13.4314 13.4315 0 30 0H46.0526C51.469 0 55.3199 5.26965 53.6745 10.4301L36.7339 63.5635C35.7012 66.8027 32.6918 69.0019 29.2919 69.0019C13.1144 69.0019 0 55.8875 0 39.71V30Z" fill="white" fill-opacity="0.07"/>
<g filter="url(#filter0_d_5_214)">
<path d="M36.6175 38.7148V24.1694H38.8121V36.8256H45.4031V38.7148H36.6175ZM47.7362 38.7148V27.8058H49.8597V38.7148H47.7362ZM48.8086 26.1225C48.4393 26.1225 48.122 25.9994 47.8569 25.7532C47.5965 25.5022 47.4663 25.204 47.4663 24.8583C47.4663 24.5079 47.5965 24.2096 47.8569 23.9634C48.122 23.7125 48.4393 23.587 48.8086 23.587C49.1779 23.587 49.4928 23.7125 49.7532 23.9634C50.0183 24.2096 50.1509 24.5079 50.1509 24.8583C50.1509 25.204 50.0183 25.5022 49.7532 25.7532C49.4928 25.9994 49.1779 26.1225 48.8086 26.1225ZM57.9084 27.8058V29.5103H51.7436V27.8058H57.9084ZM53.4339 38.7148V26.5415C53.4339 25.8597 53.5831 25.2939 53.8814 24.8441C54.1797 24.3896 54.575 24.051 55.0675 23.8285C55.5599 23.6012 56.0949 23.4876 56.6726 23.4876C57.0987 23.4876 57.4633 23.5231 57.7663 23.5941C58.0694 23.6604 58.2943 23.7219 58.4411 23.7788L57.9439 25.4975C57.8445 25.4691 57.7166 25.436 57.5604 25.3981C57.4041 25.3555 57.2147 25.3342 56.9922 25.3342C56.4761 25.3342 56.1068 25.462 55.8842 25.7177C55.6664 25.9734 55.5575 26.3427 55.5575 26.8256V38.7148H53.4339ZM64.3714 38.935C63.2966 38.935 62.371 38.7054 61.5945 38.2461C60.8227 37.7821 60.2261 37.131 59.8047 36.293C59.388 35.4502 59.1797 34.4629 59.1797 33.3313C59.1797 32.2139 59.388 31.229 59.8047 30.3768C60.2261 29.5245 60.8132 28.8593 61.5661 28.381C62.3236 27.9028 63.209 27.6637 64.2223 27.6637C64.8378 27.6637 65.4344 27.7655 66.0121 27.9691C66.5897 28.1727 67.1082 28.4923 67.5675 28.9279C68.0268 29.3635 68.389 29.9293 68.6541 30.6254C68.9193 31.3166 69.0518 32.1571 69.0518 33.1467V33.8995H60.38V32.3086H66.9709C66.9709 31.7499 66.8572 31.2551 66.63 30.8242C66.4027 30.3886 66.0831 30.0453 65.6712 29.7944C65.264 29.5434 64.7857 29.418 64.2365 29.418C63.6399 29.418 63.1191 29.5647 62.674 29.8583C62.2337 30.1471 61.8928 30.5259 61.6513 30.9947C61.4145 31.4587 61.2962 31.9629 61.2962 32.5075V33.7504C61.2962 34.4795 61.424 35.0998 61.6797 35.6112C61.9401 36.1225 62.3023 36.5131 62.7663 36.783C63.2304 37.0482 63.7725 37.1808 64.3928 37.1808C64.7952 37.1808 65.1622 37.1239 65.4936 37.0103C65.825 36.8919 66.1115 36.7167 66.353 36.4847C66.5945 36.2527 66.7791 35.9663 66.907 35.6254L68.9169 35.9876C68.7559 36.5794 68.4671 37.0979 68.0504 37.543C67.6385 37.9833 67.12 38.3266 66.495 38.5728C65.8748 38.8143 65.1669 38.935 64.3714 38.935Z" fill="white"/>
<path d="M88.5858 46.6935L88.5777 46.6891L88.552 46.6719C88.4018 46.5701 88.2529 46.4656 88.1052 46.3585C86.3293 45.0582 84.6697 43.5308 83.1538 41.8015C80.4693 38.7151 77.625 34.1351 77.625 28.4942C77.625 24.2851 80.4997 20.9471 83.9693 20.9471C84.9339 20.9413 85.8871 21.2035 86.758 21.7142C87.629 22.2249 88.3953 22.971 89 23.897C89.6048 22.9708 90.3713 22.2246 91.2425 21.7139C92.1137 21.2032 93.0671 20.9411 94.0318 20.9471C97.5003 20.9471 100.375 24.2851 100.375 28.4942C100.375 34.1365 97.5307 38.7165 94.8462 41.8001C93.3304 43.5294 91.6707 45.0568 89.8948 46.3571C89.7471 46.4647 89.5982 46.5696 89.448 46.6719L89.4223 46.6891L89.4142 46.6949L89.4107 46.6963C89.2842 46.7789 89.1432 46.8221 89 46.8221C88.8568 46.8221 88.7158 46.7789 88.5893 46.6963L88.5858 46.6935Z" fill="white"/>
<path d="M98.8933 44.3174L102.083 36.6369H99.8833V31.6671L96.5833 39.3477H98.8933V44.3174ZM99.3333 47.0282C98.3189 47.0282 97.3656 46.791 96.4733 46.3166C95.5811 45.8423 94.805 45.1984 94.145 44.3852C93.485 43.572 92.9625 42.6157 92.5775 41.5163C92.1925 40.4169 92 39.2422 92 37.9923C92 36.7423 92.1925 35.5676 92.5775 34.4682C92.9625 33.3689 93.485 32.4126 94.145 31.5993C94.805 30.7861 95.5811 30.1423 96.4733 29.6679C97.3656 29.1935 98.3189 28.9563 99.3333 28.9563C100.348 28.9563 101.301 29.1935 102.193 29.6679C103.086 30.1423 103.862 30.7861 104.522 31.5993C105.182 32.4126 105.704 33.3689 106.089 34.4682C106.474 35.5676 106.667 36.7423 106.667 37.9923C106.667 39.2422 106.474 40.4169 106.089 41.5163C105.704 42.6157 105.182 43.572 104.522 44.3852C103.862 45.1984 103.086 45.8423 102.193 46.3166C101.301 46.791 100.348 47.0282 99.3333 47.0282Z" fill="#894189"/>
<path d="M99.2667 43.7424L102.167 36.76H100.167V32.2421L97.1667 39.2244H99.2667V43.7424ZM99.6667 46.2067C98.7444 46.2067 97.8778 45.9911 97.0667 45.5598C96.2556 45.1286 95.55 44.5433 94.95 43.804C94.35 43.0647 93.875 42.1953 93.525 41.1959C93.175 40.1964 93 39.1286 93 37.9922C93 36.8559 93.175 35.788 93.525 34.7886C93.875 33.7891 94.35 32.9198 94.95 32.1805C95.55 31.4411 96.2556 30.8559 97.0667 30.4246C97.8778 29.9933 98.7444 29.7777 99.6667 29.7777C100.589 29.7777 101.456 29.9933 102.267 30.4246C103.078 30.8559 103.783 31.4411 104.383 32.1805C104.983 32.9198 105.458 33.7891 105.808 34.7886C106.158 35.788 106.333 36.8559 106.333 37.9922C106.333 39.1286 106.158 40.1964 105.808 41.1959C105.458 42.1953 104.983 43.0647 104.383 43.804C103.783 44.5433 103.078 45.1286 102.267 45.5598C101.456 45.9911 100.589 46.2067 99.6667 46.2067Z" fill="white"/>
<path d="M121.858 24.1694V38.7148H119.656V26.3711H119.571L116.091 28.6438V26.5415L119.72 24.1694H121.858Z" fill="white"/>
</g>
<defs>
<filter id="filter0_d_5_214" x="32.6174" y="20.947" width="93.2405" height="34.0812" filterUnits="userSpaceOnUse" color-interpolation-filters="sRGB">
<feFlood flood-opacity="0" result="BackgroundImageFix"/>
<feColorMatrix in="SourceAlpha" type="matrix" values="0 0 0 0 0 0 0 0 0 0 0 0 0 0 0 0 0 0 127 0" result="hardAlpha"/>
<feOffset dy="4"/>
<feGaussianBlur stdDeviation="2"/>
<feComposite in2="hardAlpha" operator="out"/>
<feColorMatrix type="matrix" values="0 0 0 0 0 0 0 0 0 0 0 0 0 0 0 0 0 0 0.25 0"/>
<feBlend mode="normal" in2="BackgroundImageFix" result="effect1_dropShadow_5_214"/>
<feBlend mode="normal" in="SourceGraphic" in2="effect1_dropShadow_5_214" result="shape"/>
</filter>
</defs>
</svg>
